<!-- Generator: Adobe Illustrator 22.1.0, SVG Export Plug-In  -->
<svg version="1.1"
	 xmlns="http://www.w3.org/2000/svg" xmlns:xlink="http://www.w3.org/1999/xlink" xmlns:a="http://ns.adobe.com/AdobeSVGViewerExtensions/3.0/"
	 x="0px" y="0px" width="293.963px" height="238.997px" viewBox="0 0 293.963 238.997"
	 style="enable-background:new 0 0 293.963 238.997;" xml:space="preserve">
<style type="text/css">
	.st0{fill:#FFCCD8;}
	.st1{fill:#535353;}
	.st2{fill:#404040;}
	.st3{fill:#E8E8E8;}
	.st4{fill:#FF934A;}
	.st5{fill:#C9C9C9;}
	.st6{fill:#F6F8FB;}
</style>
<defs>
</defs>
<g>
	
		<ellipse transform="matrix(0.7071 -0.7071 0.7071 0.7071 -33.3988 158.365)" class="st0" cx="174.464" cy="119.498" rx="119.498" ry="119.498"/>
	<g>
		<g>
			<polygon class="st1" points="82.033,58.711 151.701,14.004 188.485,71.293 118.801,116.006 			"/>
			
				<rect x="87.352" y="52.724" transform="matrix(0.8416 -0.5401 0.5401 0.8416 -9.2407 78.2161)" class="st2" width="82.778" height="4.279"/>
			
				<rect x="79.055" y="34.782" transform="matrix(0.8416 -0.5401 0.5401 0.8416 -4.7862 73.0956)" class="st1" width="86.356" height="19.852"/>
			
				<rect x="117.477" y="33.993" transform="matrix(0.8416 -0.54 0.54 0.8416 -6.6244 75.208)" class="st3" width="14.9" height="29.813"/>
		</g>
		<g>
			<path class="st3" d="M118.798,116.01l90.218-57.89c4.192-2.69,9.771-1.472,12.461,2.72l42.199,65.761
				c2.69,4.192,1.472,9.771-2.72,12.461l-90.212,57.891L118.798,116.01z"/>
			<g>
				<g>
					<polygon class="st4" points="192.688,110.165 183.271,108.112 181.231,117.516 184.311,115.539 194.158,130.885 
						199.43,127.507 189.582,112.158 					"/>
				</g>
			</g>
			
				<rect x="157.631" y="92.335" transform="matrix(0.8416 -0.54 0.54 0.8416 -24.4845 110.1171)" class="st4" width="35.78" height="8.946"/>
		</g>
		<g>
			<path class="st5" d="M248.84,160.129l-81.484,52.283L56.177,39.139c-1.245-1.94-3.048-3.503-5.222-4.269
				c-3.006-1.06-6.229-0.674-8.85,1.008l-7.61,4.883l-6.049-9.427l7.61-4.883c4.785-3.07,10.486-4.093,16.031-2.872
				c5.553,1.203,10.296,4.507,13.371,9.299l105.279,164.078l81.477-52.279l0,0C255.549,149.875,254.038,156.794,248.84,160.129z"/>
			<g>
				<path class="st1" d="M192.014,189.956c8.131,12.673,4.451,29.557-8.226,37.691c-12.672,8.131-29.564,4.446-37.695-8.227
					c-8.14-12.686-4.448-29.572,8.224-37.704C166.995,173.583,183.874,177.27,192.014,189.956z"/>
				<path class="st6" d="M177.533,199.246c3.002,4.679,1.641,10.916-3.038,13.918s-10.92,1.643-13.922-3.036
					c-3.009-4.69-1.644-10.93,3.035-13.932C168.287,193.195,174.524,194.556,177.533,199.246z"/>
			</g>
			<path class="st1" d="M6.213,58.907c0.158,0.246,0.414,0.42,0.718,0.485c0.299,0.065,0.603,0.007,0.84-0.145l26.402-16.941
				c0.237-0.152,0.412-0.401,0.481-0.703c0.068-0.304-0.001-0.597-0.16-0.843l-6.049-9.427c-0.155-0.241-0.387-0.419-0.694-0.487
				c-0.306-0.067-0.602-0.008-0.84,0.145L0.51,47.931c-0.237,0.152-0.418,0.4-0.481,0.703c-0.065,0.307-0.019,0.605,0.135,0.846
				L6.213,58.907z"/>
		</g>
	</g>
</g>
</svg>